:FULLY-SPECIFIED
:FORCE-ALL-JOINTS-BE-3DOF
:DEGREES
612
root -4.43777 15.5938 -40.5205 356.247 -74.9976 370.563
lfemur -7.47693 12.9018 -15.8594
ltibia 43.9096 0 0
lfoot -22.199 29.689 0
ltoes -23.776 0 0
rfemur -42.4564 -31.5496 17.3771
rtibia 77.9502 0 0
rfoot -14.4739 -17.5581 0
rtoes -3.69208 0 0
lowerback 10.7655 4.86894 -6.50121
upperback -2.62828 5.47008 -1.22624
thorax -9.37466 2.94976 1.28523
lowerneck 1.42502 -10.7689 -11.8761
upperneck -0.983045 -14.6146 11.4833
head 1.20463 -7.33832 5.01186
lclavicle -5.39603e-14 2.33693e-15 0
lhumerus -72.0836 -23.7038 105.144
lradius 102.313 0 0
lwrist 56.4406 0 0
lhand 7.82598 56.9771 0
lfingers 7.12502 0 0
lthumb 33.0616 83.9643 0
rclavicle -5.39603e-14 2.33693e-15 0
rhumerus 26.0345 17.1556 -46.7835
rradius 93.802 0 0
rwrist -26.6191 0 0
rhand -24.2508 -35.3907 0
rfingers 7.12502 0 0
rthumb 2.23447 -65.3293 0
613
root -4.37684 15.6191 -40.4796 356.511 -75.1766 370.401
lfemur -7.76742 13.0049 -16.0867
ltibia 43.9602 0 0
lfoot -22.1612 29.7619 0
ltoes -23.8731 0 0
rfemur -42.09 -31.8115 17.7
rtibia 78.2991 0 0
rfoot -14.7199 -18.1581 0
rtoes -3.56678 0 0
lowerback 10.6523 4.89797 -6.54867
upperback -2.691 5.5039 -1.27011
thorax -9.38158 2.9688 1.26197
lowerneck 1.37345 -10.7501 -11.8732
upperneck -0.900478 -14.589 11.5277
head 1.23784 -7.32508 5.01935
lclavicle -5.62488e-14 2.24966e-15 0
lhumerus -72.1072 -23.7952 105.172
lradius 102.296 0 0
lwrist 56.3206 0 0
lhand 7.82524 56.953 0
lfingers 7.12502 0 0
lthumb 33.0609 83.9404 0
rclavicle -5.62488e-14 2.24966e-15 0
rhumerus 26.3505 17.1982 -46.8001
rradius 95.4813 0 0
rwrist -27.5202 0 0
rhand -24.5483 -35.3349 0
rfingers 7.12502 0 0
rthumb 1.94732 -65.2831 0
614
root -4.31591 15.6445 -40.4388 356.774 -75.3556 370.24
lfemur -8.0579 13.1079 -16.3139
ltibia 44.0108 0 0
lfoot -22.1235 29.8348 0
ltoes -23.9702 0 0
rfemur -41.7235 -32.0735 18.0229
rtibia 78.6481 0 0
rfoot -14.9658 -18.7581 0
rtoes -3.44148 0 0
lowerback 10.5391 4.927 -6.59614
upperback -2.75372 5.53773 -1.31398
thorax -9.3885 2.98785 1.23872
lowerneck 1.32188 -10.7312 -11.8704
upperneck -0.817911 -14.5633 11.572
head 1.27106 -7.31183 5.02684
lclavicle -5.85372e-14 2.16239e-15 0
lhumerus -72.1308 -23.8866 105.2
lradius 102.279 0 0
lwrist 56.2007 0 0
lhand 7.82451 56.929 0
lfingers 7.12502 0 0
lthumb 33.0602 83.9165 0
rclavicle -5.85372e-14 2.16239e-15 0
rhumerus 26.6666 17.2408 -46.8167
rradius 97.1605 0 0
rwrist -28.4214 0 0
rhand -24.8458 -35.2791 0
rfingers 7.12502 0 0
rthumb 1.66017 -65.2369 0
615
root -4.25497 15.6698 -40.3979 357.038 -75.5346 370.078
lfemur -8.34838 13.211 -16.5412
ltibia 44.0614 0 0
lfoot -22.0857 29.9077 0
ltoes -24.0673 0 0
rfemur -41.357 -32.3354 18.3458
rtibia 78.9971 0 0
rfoot -15.2118 -19.3581 0
rtoes -3.31618 0 0
lowerback 10.426 4.95604 -6.64361
upperback -2.81644 5.57155 -1.35785
thorax -9.39543 3.00689 1.21546
lowerneck 1.27032 -10.7124 -11.8675
upperneck -0.735344 -14.5377 11.6164
head 1.30428 -7.29859 5.03434
lclavicle -6.08257e-14 2.07512e-15 0
lhumerus -72.1544 -23.9779 105.228
lradius 102.261 0 0
lwrist 56.0807 0 0
lhand 7.82377 56.9049 0
lfingers 7.12502 0 0
lthumb 33.0595 83.8926 0
rclavicle -6.08257e-14 2.07512e-15 0
rhumerus 26.9826 17.2834 -46.8333
rradius 98.8398 0 0
rwrist -29.3225 0 0
rhand -25.1433 -35.2233 0
rfingers 7.12502 0 0
rthumb 1.37302 -65.1907 0
